HIERARCHY
ROOT Hips
{
	OFFSET 0.000000 0.000000 0.000000
	CHANNELS 6 Xposition Yposition Zposition Zrotation Yrotation Xrotation 
	JOINT LowerBack
	{
		OFFSET 0.000000 0.000000 0.000000
		CHANNELS 3 Zrotation Yrotation Xrotation
		JOINT Spine
		{
			OFFSET 0.028270 2.035590 -0.193380
			CHANNELS 3 Zrotation Yrotation Xrotation
			JOINT Spine1
			{
				OFFSET 0.056720 2.048850 -0.042750
				CHANNELS 3 Zrotation Yrotation Xrotation
				JOINT Neck
				{
					OFFSET 0.000000 0.000000 0.000000
					CHANNELS 3 Zrotation Yrotation Xrotation
					JOINT Neck1
					{
						OFFSET -0.054170 1.746240 0.172020
						CHANNELS 3 Zrotation Yrotation Xrotation
						JOINT Head
						{
							OFFSET 0.104070 1.761360 -0.123970
							CHANNELS 3 Zrotation Yrotation Xrotation
							End Site
							{
								OFFSET 0.000000 0.000000 0.000000
							}
						}
					}
				}
				JOINT LeftShoulder
				{
					OFFSET 0.000000 0.000000 0.000000
					CHANNELS 3 Zrotation Yrotation Xrotation
					JOINT LeftArm
					{
						OFFSET 3.362410 1.200890 -0.311210
						CHANNELS 3 Zrotation Yrotation Xrotation
						JOINT LeftForeArm
						{
							OFFSET 4.983000 -0.000000 -0.000000
							CHANNELS 3 Zrotation Yrotation Xrotation
							JOINT LeftHand
							{
								OFFSET 3.483560 -0.000000 -0.000000
								CHANNELS 3 Zrotation Yrotation Xrotation
								JOINT LeftFingerBase
								{
									OFFSET 0.000000 0.000000 0.000000
									CHANNELS 3 Zrotation Yrotation Xrotation
									JOINT LeftHandIndex1
									{
										OFFSET 0.715260 -0.000000 -0.000000
										CHANNELS 3 Zrotation Yrotation Xrotation
										End Site
										{
											OFFSET 0.000000 0.000000 0.000000
										}
									}
								}
								JOINT LThumb
								{
									OFFSET 0.000000 0.000000 0.000000
									CHANNELS 3 Zrotation Yrotation Xrotation
									End Site
									{
										OFFSET 0.000000 0.000000 0.000000
									}
								}
							}
						}
					}
				}
				JOINT RightShoulder
				{
					OFFSET 0.000000 0.000000 0.000000
					CHANNELS 3 Zrotation Yrotation Xrotation
					JOINT RightArm
					{
						OFFSET -3.136600 1.374050 -0.404650
						CHANNELS 3 Zrotation Yrotation Xrotation
						JOINT RightForeArm
						{
							OFFSET -5.241900 -0.000000 -0.000000
							CHANNELS 3 Zrotation Yrotation Xrotation
							JOINT RightHand
							{
								OFFSET -3.444170 -0.000000 -0.000000
								CHANNELS 3 Zrotation Yrotation Xrotation
								JOINT RightFingerBase
								{
									OFFSET 0.000000 0.000000 0.000000
									CHANNELS 3 Zrotation Yrotation Xrotation
									JOINT RightHandIndex1
									{
										OFFSET -0.622530 -0.000000 -0.000000
										CHANNELS 3 Zrotation Yrotation Xrotation
										End Site
										{
											OFFSET 0.000000 0.000000 0.000000
										}
									}
								}
								JOINT RThumb
								{
									OFFSET 0.000000 0.000000 0.000000
									CHANNELS 3 Zrotation Yrotation Xrotation
									End Site
									{
										OFFSET 0.000000 0.000000 0.000000
									}
								}
							}
						}
					}
				}
			}
		}
	}
}
}
MOTION
Frames: 9
Frame Time: 0.008333
1.261917 17.288128 0.457214 175.435672 -48.267968 -160.583930 -4.347331 0.011241 -7.376414 -2.007145 0.045477 -3.836157 -7.960955 0.121628 1.899745 9.487510 -11.506040 -6.730311 -2.796525 -0.233433 0.262800 0.000000 0.000000 0.000000 1.994694 17.237140 2.007391 -66.499788 10.752459 -4.178762 -3.429135 -27.794605 0.013784 9.297313 -2.233646 -0.178956 -0.109966 -0.052202 -0.000000 0.000000 0.000000 0.000000 0.000000 0.000000 0.000000 8.014913 -5.896440 -4.884088 89.781130 25.386947 33.665656 -179.888576 76.663472 179.924721 -8.120967 14.015293 -1.079064 0.148139 -0.855661 -0.000000 0.000000 0.000000 0.000000 0.000000 0.000000 0.000000 
1.284070 17.287950 0.449345 175.074018 -47.736151 -160.459302 -4.418244 0.099638 -7.267490 -2.024840 0.142077 -3.820065 -7.943093 0.218964 1.877659 9.254842 -11.373213 -6.661961 -2.772552 -0.232294 0.277974 0.000000 0.000000 0.000000 1.824246 17.469784 2.018641 -66.804834 10.819662 -4.473572 -3.420041 -27.583316 0.014010 9.337864 -2.257873 -0.181570 -0.107621 -0.053831 -0.000000 0.000000 0.000000 0.000000 0.000000 0.000000 0.000000 7.556089 -5.738988 -4.996702 90.121853 25.624704 33.700905 -179.867007 76.033149 179.921600 -8.288149 14.083333 -1.107058 0.149785 -0.865335 -0.000000 0.000000 0.000000 0.000000 0.000000 0.000000 0.000000 
1.304822 17.288333 0.444677 174.716500 -47.247779 -160.382011 -4.465106 0.189501 -7.111438 -2.035854 0.239258 -3.796109 -7.915857 0.316740 1.851638 9.009294 -11.240436 -6.591534 -2.748101 -0.231084 0.293242 0.000000 0.000000 0.000000 1.634321 17.691435 2.029885 -67.130474 10.864116 -4.773950 -3.408467 -27.365727 0.014231 9.377187 -2.292704 -0.185086 -0.105107 -0.055363 -0.000000 0.000000 0.000000 0.000000 0.000000 0.000000 0.000000 7.086473 -5.582620 -5.108374 90.379535 25.865943 33.685350 -179.844075 75.407376 179.918440 -8.450917 14.138410 -1.133667 0.151045 -0.874263 -0.000000 0.000000 0.000000 0.000000 0.000000 0.000000 0.000000 
1.323971 17.289352 0.442498 174.356027 -46.796977 -160.342135 -4.498856 0.280388 -6.916882 -2.042923 0.337397 -3.765434 -7.881735 0.415376 1.824025 8.759896 -11.112602 -6.519774 -2.724589 -0.229920 0.308427 0.000000 0.000000 0.000000 1.434335 17.903399 2.039607 -67.473409 10.893142 -5.078281 -3.394417 -27.145594 0.014464 9.418359 -2.338604 -0.189499 -0.102445 -0.056865 -0.000000 0.000000 0.000000 0.000000 0.000000 0.000000 0.000000 6.623792 -5.431557 -5.217361 90.556284 26.111483 33.627523 -179.820728 74.789677 179.915363 -8.601966 14.178161 -1.157587 0.151944 -0.882401 -0.000000 0.000000 0.000000 0.000000 0.000000 0.000000 0.000000 
1.341437 17.291034 0.442066 173.991247 -46.377946 -160.332810 -4.526452 0.372063 -6.695236 -2.047967 0.436598 -3.729617 -7.843085 0.515015 1.797893 8.515093 -10.994646 -6.448035 -2.703032 -0.228883 0.323258 0.000000 0.000000 0.000000 1.233732 18.110627 2.046194 -67.830069 10.912467 -5.382283 -3.378086 -26.925932 0.014714 9.463432 -2.394524 -0.194913 -0.099685 -0.058384 -0.000000 0.000000 0.000000 0.000000 0.000000 0.000000 0.000000 6.183449 -5.290244 -5.322468 90.656958 26.362777 33.537655 -179.797963 74.185041 179.912493 -8.734978 14.200551 -1.177817 0.152517 -0.889684 -0.000000 0.000000 0.000000 0.000000 0.000000 0.000000 0.000000 
1.357069 17.293442 0.442612 173.620983 -45.983643 -160.342239 -4.557422 0.463865 -6.460603 -2.053505 0.536644 -3.690868 -7.802997 0.615440 1.775734 8.283772 -10.890239 -6.377023 -2.684766 -0.228088 0.337650 0.000000 0.000000 0.000000 1.041852 18.314594 2.048408 -68.195666 10.932590 -5.684167 -3.359768 -26.715465 0.014985 9.512356 -2.456716 -0.201026 -0.096874 -0.059975 -0.000000 0.000000 0.000000 0.000000 0.000000 0.000000 0.000000 5.782130 -5.162016 -5.422027 90.688801 26.621393 33.426705 -179.777084 73.598533 179.909937 -8.844887 14.205087 -1.193452 0.152853 -0.896103 -0.000000 0.000000 0.000000 0.000000 0.000000 0.000000 0.000000 
1.370782 17.296616 0.443333 173.243784 -45.607322 -160.354437 -4.597112 0.555607 -6.232794 -2.061081 0.637202 -3.652122 -7.763643 0.716273 1.761580 8.073038 -10.801921 -6.309331 -2.670553 -0.227581 0.351084 0.000000 0.000000 0.000000 0.865528 18.526275 2.044631 -68.564076 10.954093 -5.975959 -3.340257 -26.517033 0.015279 9.564047 -2.519702 -0.207239 -0.094097 -0.061661 -0.000000 0.000000 0.000000 0.000000 0.000000 0.000000 0.000000 5.432674 -5.049077 -5.515245 90.659699 26.886635 33.305137 -179.759126 73.037181 179.907796 -8.928118 14.191821 -1.203989 0.153036 -0.901605 -0.000000 0.000000 0.000000 0.000000 0.000000 0.000000 0.000000 
1.382925 17.300543 0.443547 172.855814 -45.242389 -160.358649 -4.654240 0.645777 -6.022037 -2.072818 0.737181 -3.615261 -7.727392 0.816388 1.755761 7.889147 -10.731700 -6.244625 -2.661344 -0.227454 0.363776 0.000000 0.000000 0.000000 0.711762 18.740179 2.034872 -68.930310 10.993307 -6.258182 -3.319966 -26.346332 0.015582 9.613949 -2.576211 -0.212850 -0.091408 -0.063471 -0.000000 0.000000 0.000000 0.000000 0.000000 0.000000 0.000000 5.146624 -4.953181 -5.600448 90.581768 27.161533 33.184813 -179.745490 72.507093 179.906139 -8.983552 14.163373 -1.209524 0.153194 -0.906274 -0.000000 0.000000 0.000000 0.000000 0.000000 0.000000 0.000000 
1.393105 17.305217 0.442844 172.466669 -44.885547 -160.345211 -4.726182 0.734283 -5.846088 -2.088453 0.835620 -3.582570 -7.695454 0.914812 1.763206 7.734739 -10.681317 -6.187268 -2.656822 -0.227636 0.374722 0.000000 0.000000 0.000000 0.582981 18.974889 2.018010 -69.288797 11.039575 -6.518706 -3.300057 -26.199503 0.015884 9.658358 -2.619506 -0.217360 -0.088913 -0.065368 -0.000000 0.000000 0.000000 0.000000 0.000000 0.000000 0.000000 4.926845 -4.876530 -5.678687 90.465759 27.446899 33.075769 -179.736766 72.012319 179.905004 -9.011414 14.121858 -1.210255 0.153407 -0.910097 -0.000000 0.000000 0.000000 0.000000 0.000000 0.000000 0.000000 
